# xmcd
#
# Track frame offsets: 
#        150
#        13600
#        29937
#        48255
#        66192
#        77562
#        88477
#        104555
#        119665
#        134472
#        149747
#        165965
#        184780
#        200222
#        214827
#        228100
#        241185
#        256012
#
# Disc length: 3611 seconds
#
# Revision: 4
# Processed by: cddbd v1.5.2PL0 Copyright (c) Steve Scherf et al.
# Submitted via: ExactAudioCopy v0.99pb5
#
DISCID=0b0e1912
DTITLE=Various Artist - The History Of Country Music - The Eighties - Volume 
DTITLE=2 - CD 1
DYEAR=1993
DGENRE=Country
TTITLE0=Merle Haggard - Big city
TTITLE1=Barbara Mandrell feat. George Jones - I was country when count
TTITLE1=ry wasn't cool
TTITLE2=Don Williams - Lord, I hope this day is good
TTITLE3=Statler Brothers - Too much on my heart
TTITLE4=Willie Nelson - On the road again
TTITLE5=Eddy Raven - I got Mexico
TTITLE6=Alabama - Feels so right
TTITLE7=Kathy Mattea - Eighteen wheels and a dozen roses
TTITLE8=George Jones - I always get lucky with you
TTITLE9=Waylon - Lucille (you won't do your daddy's will)
TTITLE10=Lee Greenwood - Somebody's gonna love you
TTITLE11=Desert Rose Band - I still believe in you
TTITLE12=Judds - Why not me
TTITLE13=Ronnie Milsap - There's no gettin' over me
TTITLE14=B.J. Thomas - New looks from an older lover
TTITLE15=Larry Gatlin and The Gatlin Brothers - Houston (means I'm one d
TTITLE15=ay closer to you)
TTITLE16=Dolly Parton - But you know I love you
TTITLE17=Ricky Skaggs - Don't cheat in our hometown
EXTD=YEAR: 1993
EXTT0=
EXTT1=
EXTT2=
EXTT3=
EXTT4=
EXTT5=
EXTT6=
EXTT7=
EXTT8=
EXTT9=
EXTT10=
EXTT11=
EXTT12=
EXTT13=
EXTT14=
EXTT15=
EXTT16=
EXTT17=
PLAYORDER=
